Coordinates
version=1
nRows=4
nColumns=107
inDegrees=yes

Units are S.I. units (second, meters, Newtons, ...)
If the header above contains a line with 'inDegrees', this indicates whether rotational values are in degrees (yes) or radians (no).

endheader
time	sternoclavicular_r2	sternoclavicular_r3	unrotscap_r3	unrotscap_r2	acromioclavicular_r2	acromioclavicular_r3	acromioclavicular_r1	unrothum_r1	unrothum_r3	unrothum_r2	elv_angle	shoulder_elv	shoulder1_r2	shoulder_rot	elbow_flexion	pro_sup	deviation	flexion	proximal_distal_r1	proximal_distal_r3	cmc_flexion	cmc_abduction	mp_flexion	ip_flexion	mcp2_flexion	mcp2_abduction	pm2_flexion	md2_flexion	mcp3_flexion	mcp3_abduction	pm3_flexion	md3_flexion	mcp4_flexion	mcp4_abduction	pm4_flexion	md4_flexion	mcp5_flexion	mcp5_abduction	pm5_flexion	md5_flexion	bicpt_tx	bicpt_ty	bicpt_tz	bicpt2_tx	bicpt2_ty	bicpt2_tz	ptpt_tx	ptpt_ty	ptpt_tz	FCUpt_tx	FCUpt_ty	FCUpt_tz	EDCpt_tx	EDCpt_ty	EDCpt_tz	APLpt_tx	APLpt_ty	APLpt_tz	FPLpt_tx	FPLpt_ty	FPLpt_tz	FPLpt2_tx	FPLpt2_ty	FPLpt2_tz	PEC1pt2_tx	PEC1pt2_ty	PEC1pt2_tz	PEC1pt3_tx	PEC1pt3_ty	PEC1pt3_tz	PEC2pt2_tx	PEC2pt2_ty	PEC2pt2_tz	PEC2pt3_tx	PEC2pt3_ty	PEC2pt3_tz	PEC3pt2_tx	PEC3pt2_ty	PEC3pt2_tz	PEC3pt3_tx	PEC3pt3_ty	PEC3pt3_tz	DELT2pt2a_tx	DELT2pt2a_ty	DELT2pt2a_tz	DELT2pt2_tx	DELT2pt2_ty	DELT2pt2_tz	LAT1pt2_tx	LAT1pt2_ty	LAT1pt2_tz	LAT1pt3_tx	LAT1pt3_ty	LAT1pt3_tz	LAT2pt2_tx	LAT2pt2_ty	LAT2pt2_tz	LAT2pt3_tx	LAT2pt3_ty	LAT2pt3_tz	LAT3pt2_tx	LAT3pt2_ty	LAT3pt2_tz	LAT3pt3_tx	LAT3pt3_ty	LAT3pt3_tz
      0.70000000	     -0.31937083	      0.13527041	     -0.13527041	      0.31937083	     -0.06466610	      0.52260864	      0.23490899	     -0.23490899	     -0.52260864	      0.06466610	     99.26094019	     75.61388259	     -1.73243022	    -23.27147836	     28.82850335	     14.52548408	     -0.07245155	     -0.86762925	     -0.10262347	     -0.43381463	      1.06022297	      2.91770925	    -32.53935162	    -29.68631556	    -13.44085922	      8.84235155	     14.73120362	    -24.75307622	     43.45076727	     11.64376647	     79.15223121	     60.35211351	     32.34236441	     -4.77400154	     85.02471344	     35.82953440	    -27.99161812	    -12.48618067	     -9.88317813	      5.01286021	      0.00085356	     -0.03090419	     -0.00483222	      0.01578450	     -0.01803140	     -0.00973453	      0.00647673	     -0.06559399	     -0.00122011	      0.00531564	     -0.18393286	      0.00003878	     -0.00174305	      0.00044411	      0.00015344	      0.00025729	      0.00010292	      0.00051458	      0.00032933	      0.00098799	      0.00055574	      0.00002474	     -0.00002588	     -0.00003106	      0.00247846	      0.00869560	      0.00604912	     -0.00810750	      0.01957561	     -0.01856742	      0.00247846	      0.00869560	      0.00604912	      0.00054610	      0.01814735	     -0.00953576	      0.00392695	      0.00483551	      0.01591609	      0.00000000	      0.00764555	      0.00000000	     -0.00709931	     -0.03280805	     -0.00630334	      0.01559250	     -0.00053448	     -0.00451626	     -0.00088216	      0.01478673	     -0.00604912	      0.00243645	      0.02133994	     -0.01764325	     -0.00592309	      0.01281236	     -0.00541900	     -0.01235028	      0.02705299	     -0.03028759	     -0.02318828	      0.01432464	     -0.00726734	     -0.01537484	      0.03125376	     -0.03784898
      0.73333333	     -0.32075881	      0.13585829	     -0.13585829	      0.32075881	     -0.06494713	      0.52487989	      0.23592990	     -0.23592990	     -0.52487989	      0.06494713	     98.91459502	     75.94249826	     -1.72638536	    -21.51125748	     28.81681746	     12.82082596	     -0.06990225	     -0.88094097	     -0.09886602	     -0.44047049	      1.05231811	      2.98948487	    -32.74654583	    -29.65557316	    -13.42440455	      8.71965435	     14.57067849	    -24.04426150	     43.41533803	     11.69929243	     79.43170086	     59.74011871	     32.09535243	     -5.01124168	     85.34475407	     35.53410117	    -28.25882746	    -12.46385828	     -9.66404121	      4.98779240	      0.00085317	     -0.03090285	     -0.00483200	      0.01567865	     -0.01802823	     -0.00985358	      0.00660269	     -0.06551255	     -0.00108279	      0.00515787	     -0.18395558	      0.00008467	     -0.00153850	      0.00038862	      0.00014136	      0.00025143	      0.00010057	      0.00050285	      0.00032183	      0.00096548	      0.00054308	      0.00002527	     -0.00002577	     -0.00003092	      0.00248923	      0.00873339	      0.00607540	     -0.00814273	      0.01966069	     -0.01864812	      0.00248923	      0.00873339	      0.00607540	      0.00054847	      0.01822621	     -0.00957720	      0.00393943	      0.00485653	      0.01594681	      0.00000000	      0.00771261	      0.00000000	     -0.00713016	     -0.03295063	     -0.00635902	      0.01463311	     -0.00047880	     -0.00384057	     -0.00088600	      0.01485099	     -0.00607540	      0.00244704	      0.02143268	     -0.01771993	     -0.00594883	      0.01286805	     -0.00544255	     -0.01240395	      0.02717056	     -0.03041922	     -0.02328905	      0.01438690	     -0.00729892	     -0.01544165	      0.03138959	     -0.03801347
      0.76666667	     -0.32081863	      0.13588363	     -0.13588363	      0.32081863	     -0.06495925	      0.52497778	      0.23597390	     -0.23597390	     -0.52497778	      0.06495925	     98.91567765	     75.95666278	     -1.72640426	    -21.51332772	     28.82216977	     12.82156681	     -0.06989678	     -0.88096225	     -0.09885862	     -0.44048112	      1.05238644	      2.98933905	    -32.74647865	    -29.65553037	    -13.42549873	      8.71966092	     14.57055690	    -24.04440895	     43.41559244	     11.69912059	     79.43180287	     59.74009449	     32.09537941	     -5.01092743	     85.34472107	     35.53407602	    -28.26005570	    -12.46342955	     -9.66440313	      4.98775593	      0.00085335	     -0.03090346	     -0.00483210	      0.01567869	     -0.01802968	     -0.00985353	      0.00660263	     -0.06551258	     -0.00108285	      0.00515794	     -0.18395557	      0.00008465	     -0.00153858	      0.00038865	      0.00014136	      0.00025141	      0.00010056	      0.00050281	      0.00032180	      0.00096540	      0.00054304	      0.00002460	     -0.00002569	     -0.00003083	      0.00248969	      0.00873502	      0.00607654	     -0.00814425	      0.01966435	     -0.01865160	      0.00248969	      0.00873502	      0.00607654	      0.00054858	      0.01822961	     -0.00957899	      0.00393997	      0.00485744	      0.01594813	      0.00000000	      0.00771550	      0.00000000	     -0.00713149	     -0.03295678	     -0.00636143	      0.01463421	     -0.00047886	     -0.00384140	     -0.00088616	      0.01485376	     -0.00607654	      0.00244749	      0.02143668	     -0.01772324	     -0.00594994	      0.01287045	     -0.00544357	     -0.01240627	      0.02717563	     -0.03042489	     -0.02329340	      0.01438958	     -0.00730029	     -0.01544453	      0.03139545	     -0.03802056
      0.80000000	     -0.32169513	      0.13625488	     -0.13625488	      0.32169513	     -0.06513672	      0.52641206	      0.23661860	     -0.23661860	     -0.52641206	      0.06513672	     98.70037569	     76.16418234	     -1.72264653	    -20.40783883	     28.81401688	     11.99511081	     -0.06752495	     -0.89258695	     -0.09537282	     -0.44629348	      1.29324661	      2.67165006	    -32.91667010	    -29.10036540	    -13.71604174	      8.67843256	     14.49921400	    -22.93850075	     43.59117160	     11.69575918	     79.47085331	     59.83069223	     32.35633428	     -4.69675284	     85.11871187	     35.02481712	    -28.19049086	    -12.40829681	     -9.90055187	      4.99397328	      0.00085308	     -0.03090253	     -0.00483195	      0.01562499	     -0.01802747	     -0.00990979	      0.00666370	     -0.06547310	     -0.00101627	      0.00508177	     -0.18396629	      0.00010769	     -0.00143941	      0.00036206	      0.00013494	      0.00024603	      0.00009841	      0.00049207	      0.00031492	      0.00094477	      0.00053143	      0.00002848	     -0.00003140	     -0.00003768	      0.00249649	      0.00875889	      0.00609314	     -0.00816650	      0.01971808	     -0.01870255	      0.00249649	      0.00875889	      0.00609314	      0.00055008	      0.01827942	     -0.00960516	      0.00394783	      0.00487071	      0.01596738	      0.00000000	      0.00775802	      0.00000000	     -0.00715098	     -0.03304682	     -0.00639672	      0.01401057	     -0.00044449	     -0.00344097	     -0.00088858	      0.01489434	     -0.00609314	      0.00245418	      0.02149524	     -0.01777166	     -0.00596620	      0.01290561	     -0.00545844	     -0.01244016	      0.02724987	     -0.03050801	     -0.02335704	      0.01442889	     -0.00732023	     -0.01548673	      0.03148122	     -0.03812444
